<svg xmlns="http://www.w3.org/2000/svg" version="1.1" xmlns:xlink="http://www.w3.org/1999/xlink" xmlns:svgjs="http://svgjs.dev/svgjs" viewBox="0 0 800 800" preserveAspectRatio="xMidYMid slice"><defs><pattern id="pppixelate-pattern" width="20" height="20" patternUnits="userSpaceOnUse" patternTransform="translate(0 0) scale(40) rotate(0)" shape-rendering="crispEdges">
    <rect width="1" height="1" x="9" y="2" fill="hsl(265, 55%, 20%)"></rect><rect width="1" height="1" x="10" y="2" fill="hsl(265, 55%, 20%)"></rect><rect width="1" height="1" x="7" y="3" fill="hsl(265, 55%, 20%)"></rect><rect width="1" height="1" x="8" y="3" fill="hsl(265, 55%, 20%)"></rect><rect width="1" height="1" x="9" y="3" fill="hsl(265, 55%, 20%)"></rect><rect width="1" height="1" x="10" y="3" fill="hsl(265, 55%, 20%)"></rect><rect width="1" height="1" x="11" y="3" fill="hsl(265, 55%, 20%)"></rect><rect width="1" height="1" x="12" y="3" fill="hsl(265, 55%, 20%)"></rect><rect width="1" height="1" x="7" y="4" fill="hsl(265, 55%, 20%)"></rect><rect width="1" height="1" x="8" y="4" fill="hsl(39, 100%, 89%)"></rect><rect width="1" height="1" x="9" y="4" fill="hsl(39, 100%, 89%)"></rect><rect width="1" height="1" x="10" y="4" fill="hsl(39, 100%, 89%)"></rect><rect width="1" height="1" x="11" y="4" fill="hsl(39, 100%, 89%)"></rect><rect width="1" height="1" x="12" y="4" fill="hsl(265, 55%, 20%)"></rect><rect width="1" height="1" x="7" y="5" fill="hsl(265, 55%, 20%)"></rect><rect width="1" height="1" x="8" y="5" fill="hsl(39, 100%, 89%)"></rect><rect width="1" height="1" x="9" y="5" fill="hsl(39, 100%, 89%)"></rect><rect width="1" height="1" x="10" y="5" fill="hsl(39, 100%, 89%)"></rect><rect width="1" height="1" x="11" y="5" fill="hsl(39, 100%, 89%)"></rect><rect width="1" height="1" x="12" y="5" fill="hsl(265, 55%, 20%)"></rect><rect width="1" height="1" x="7" y="6" fill="hsl(265, 55%, 20%)"></rect><rect width="1" height="1" x="8" y="6" fill="hsl(341, 100%, 85%)"></rect><rect width="1" height="1" x="9" y="6" fill="hsl(39, 100%, 89%)"></rect><rect width="1" height="1" x="10" y="6" fill="hsl(39, 100%, 89%)"></rect><rect width="1" height="1" x="11" y="6" fill="hsl(341, 100%, 85%)"></rect><rect width="1" height="1" x="12" y="6" fill="hsl(265, 55%, 20%)"></rect><rect width="1" height="1" x="6" y="7" fill="hsl(265, 55%, 20%)"></rect><rect width="1" height="1" x="9" y="7" fill="hsl(39, 100%, 89%)"></rect><rect width="1" height="1" x="10" y="7" fill="hsl(39, 100%, 89%)"></rect><rect width="1" height="1" x="13" y="7" fill="hsl(265, 55%, 20%)"></rect><rect width="1" height="1" x="8" y="8" fill="hsl(305, 77%, 40%)"></rect><rect width="1" height="1" x="9" y="8" fill="hsl(305, 77%, 40%)"></rect><rect width="1" height="1" x="10" y="8" fill="hsl(305, 77%, 40%)"></rect><rect width="1" height="1" x="11" y="8" fill="hsl(305, 77%, 40%)"></rect><rect width="1" height="1" x="8" y="9" fill="hsl(305, 77%, 40%)"></rect><rect width="1" height="1" x="9" y="9" fill="hsl(305, 77%, 40%)"></rect><rect width="1" height="1" x="10" y="9" fill="hsl(305, 77%, 40%)"></rect><rect width="1" height="1" x="11" y="9" fill="hsl(305, 77%, 40%)"></rect><rect width="1" height="1" x="8" y="10" fill="hsl(305, 77%, 40%)"></rect><rect width="1" height="1" x="9" y="10" fill="hsl(305, 77%, 40%)"></rect><rect width="1" height="1" x="10" y="10" fill="hsl(305, 77%, 40%)"></rect><rect width="1" height="1" x="11" y="10" fill="hsl(305, 77%, 40%)"></rect><rect width="1" height="1" x="8" y="11" fill="hsl(305, 77%, 40%)"></rect><rect width="1" height="1" x="9" y="11" fill="hsl(305, 77%, 40%)"></rect><rect width="1" height="1" x="10" y="11" fill="hsl(305, 77%, 40%)"></rect><rect width="1" height="1" x="11" y="11" fill="hsl(305, 77%, 40%)"></rect><rect width="1" height="1" x="8" y="12" fill="hsl(305, 77%, 40%)"></rect><rect width="1" height="1" x="9" y="12" fill="hsl(305, 77%, 40%)"></rect><rect width="1" height="1" x="10" y="12" fill="hsl(305, 77%, 40%)"></rect><rect width="1" height="1" x="11" y="12" fill="hsl(305, 77%, 40%)"></rect><rect width="1" height="1" x="9" y="13" fill="hsl(305, 77%, 40%)"></rect><rect width="1" height="1" x="10" y="13" fill="hsl(305, 77%, 40%)"></rect><rect width="1" height="1" x="8" y="14" fill="hsl(335, 77%, 50%)"></rect><rect width="1" height="1" x="11" y="14" fill="hsl(335, 77%, 50%)"></rect><rect width="1" height="1" x="7" y="15" fill="hsl(335, 77%, 50%)"></rect><rect width="1" height="1" x="8" y="15" fill="hsl(335, 77%, 50%)"></rect><rect width="1" height="1" x="11" y="15" fill="hsl(335, 77%, 50%)"></rect><rect width="1" height="1" x="12" y="15" fill="hsl(335, 77%, 50%)"></rect>
  </pattern></defs><rect width="100%" height="100%" fill="url(#pppixelate-pattern)"></rect></svg>